# xmcd
#
# Track frame offsets: 
#        150
#        54448
#        98053
#        121469
#
# Disc length: 2741 seconds
#
# Revision: 6
# Processed by: cddbd v1.5.2PL0 Copyright (c) Steve Scherf et al.
# Submitted via: ExactAudioCopy v0.99pb4
#
DISCID=2c0ab304
DTITLE=Isaac Hayes - Hot Buttered Soul
DYEAR=1969
DGENRE=Soul
TTITLE0=Walk On By
TTITLE1=Hyperbolicsyllablicsesquedalymistic
TTITLE2=One Woman
TTITLE3=By The Time I Get To Phoenix
EXTD=© 2001\nLabel: Stax Records (Fantasy Inc.]\nSCD24 4114-2\n24 BIT 
EXTD=Remastered
EXTT0=
EXTT1=
EXTT2=
EXTT3=
PLAYORDER=
